<svg width="38" height="38" viewBox="0 0 38 38" fill="none" xmlns="http://www.w3.org/2000/svg">
<path d="M18.5429 37.0937C28.7838 37.0937 37.0857 28.79 37.0857 18.5468C37.0857 8.3037 28.7838 0 18.5429 0C8.30193 0 0 8.3037 0 18.5468C0 28.79 8.30193 37.0937 18.5429 37.0937Z" fill="#9747FF"/>
<path d="M20.7315 21.6094V21.8654V22.3166L21.189 22.3086L26.2971 22.2158L27.1722 22.1998H27.2089C27.7513 22.1838 28.2792 22.0702 28.7719 21.8638C28.7831 21.859 28.7927 21.8542 28.8039 21.8494L26.3323 26.4881C25.8923 27.3122 25.0365 27.8402 24.099 27.8658L21.2946 27.917L20.8563 27.925L20.8387 28.357L20.8131 28.9683L18.6582 25.2992L20.7299 21.6094H20.7315Z" fill="white"/>
<path d="M20.8141 29.1283C20.7581 29.1283 20.7053 29.0995 20.6765 29.0499L18.5216 25.3808C18.4928 25.3312 18.4928 25.2704 18.5216 25.2208L20.5933 21.531C20.6285 21.467 20.7021 21.4366 20.7725 21.4542C20.8429 21.4718 20.8924 21.5358 20.8924 21.6094V22.155L27.2067 22.0398C27.7282 22.0254 28.2338 21.9166 28.7121 21.7166L28.7329 21.7086C28.7953 21.6814 28.8737 21.6958 28.9185 21.7454C28.9649 21.795 28.9792 21.867 28.9473 21.9262L26.4756 26.5649C26.0085 27.4402 25.1014 28.0002 24.1048 28.0274L21.0108 28.0834L20.974 28.9763C20.9708 29.0467 20.9212 29.1075 20.8525 29.1251C20.8397 29.1283 20.8269 29.1299 20.8141 29.1299V29.1283ZM18.8448 25.2976L20.6781 28.4194L20.6989 27.9186C20.7021 27.8338 20.7709 27.7666 20.8556 27.765L24.0984 27.7058C24.9782 27.6818 25.7813 27.1873 26.1941 26.4129L28.4673 22.147C28.0626 22.2766 27.6434 22.347 27.2163 22.3582L26.3028 22.3758L20.7373 22.4766C20.6941 22.4766 20.6525 22.4606 20.6221 22.4302C20.5917 22.3998 20.5741 22.3598 20.5741 22.3166V22.219L18.8448 25.2976Z" fill="black"/>
<path d="M28.2276 13.9922L30.2273 17.6324C30.5009 18.1301 30.4977 18.7269 30.2209 19.2309L28.7747 21.8631C28.282 22.0695 27.7525 22.1847 27.2118 22.1991H27.175L26.2999 22.2167L23.4827 17.2708C23.4427 17.2004 23.4667 17.1396 23.4843 17.1092C23.5019 17.0788 23.5435 17.0276 23.6267 17.026L26.4919 16.9748L26.7782 16.97L26.903 16.714L28.2276 13.9922Z" fill="white"/>
<path d="M26.298 22.3759C26.2404 22.3759 26.1876 22.3455 26.1588 22.2943L23.3416 17.3484C23.284 17.246 23.284 17.1291 23.3448 17.0267C23.4024 16.9259 23.5032 16.8667 23.6216 16.8635L26.6771 16.8075L28.0849 13.9177C28.1105 13.8633 28.1649 13.8297 28.2241 13.8281C28.2833 13.8281 28.3393 13.8585 28.3681 13.9113L30.3678 17.5516C30.6669 18.0972 30.6654 18.7533 30.3614 19.3053L28.9152 21.9375C28.8976 21.9695 28.8704 21.9935 28.8368 22.0079C28.3217 22.2239 27.7762 22.3407 27.2163 22.3551L26.3028 22.3727C26.3028 22.3727 26.3012 22.3727 26.2996 22.3727L26.298 22.3759ZM28.2353 14.3402L26.9203 17.0395C26.8947 17.0939 26.8403 17.1275 26.7795 17.1291L23.628 17.1868L26.3908 22.0559L27.2067 22.0415C27.709 22.0287 28.1985 21.9263 28.6608 21.7391L30.0798 19.1565C30.331 18.7005 30.3326 18.1612 30.0862 17.7116L28.2353 14.3418V14.3402Z" fill="black"/>
<path d="M11.4158 22.5126L17.207 22.5078C17.2886 22.5078 17.3302 22.5574 17.3478 22.5878C17.3653 22.6182 17.3877 22.679 17.3478 22.7494L15.9192 25.2232L15.7768 25.4696L15.9368 25.7L17.6437 28.1546L13.4187 28.0954C12.8412 28.0874 12.3181 27.7946 12.0173 27.3129L10.4512 24.7992C10.5248 24.2647 10.7023 23.7479 10.9791 23.2679L11.4158 22.5126Z" fill="white"/>
<path d="M17.6456 28.3164C17.6456 28.3164 17.6456 28.3164 17.644 28.3164L13.419 28.2572C12.7871 28.2476 12.2144 27.9276 11.8849 27.3995L10.3187 24.8858C10.2995 24.8538 10.2915 24.817 10.2963 24.7786C10.3731 24.2217 10.5571 23.6857 10.8434 23.1897L11.2801 22.4344C11.3089 22.3848 11.3617 22.3544 11.4177 22.3544L17.2089 22.3496C17.3256 22.3528 17.4296 22.4072 17.4888 22.5096C17.548 22.612 17.548 22.7288 17.4888 22.8312L15.969 25.465L17.7784 28.0668C17.812 28.1164 17.8168 28.1804 17.788 28.2332C17.7608 28.286 17.7064 28.318 17.6472 28.318L17.6456 28.3164ZM10.6194 24.7642L12.1552 27.2283C12.4272 27.6636 12.9007 27.9276 13.4222 27.9356L17.3352 27.9916L15.6459 25.5626C15.6107 25.5114 15.6075 25.4442 15.6379 25.3914L17.2089 22.6696L11.5089 22.6728L11.1186 23.3481C10.8626 23.7913 10.6946 24.2681 10.6194 24.7642Z" fill="black"/>
<path d="M22.5689 7.61843C23.4887 7.59443 24.3462 8.06166 24.8085 8.83932L26.2035 11.1899L26.4227 11.5595L26.8115 11.3531L27.3602 11.0603L25.1861 14.7885L20.9403 14.9165L21.1659 14.7837L21.561 14.5517L21.3323 14.1645L18.7694 9.84738L18.3295 9.10653C18.0511 8.6377 17.688 8.23448 17.2577 7.91285C17.2481 7.90645 17.2401 7.89845 17.2305 7.89205L22.5033 7.61843C22.5257 7.61843 22.5481 7.61683 22.5689 7.61523V7.61843Z" fill="white"/>
<path d="M20.9406 15.0782C20.8703 15.0782 20.8063 15.0317 20.7871 14.9629C20.7663 14.8925 20.7967 14.8173 20.8591 14.7805L21.3422 14.4973L18.1939 9.19136C17.9267 8.74173 17.5795 8.3561 17.1636 8.04408L17.138 8.02488C17.0836 7.98488 17.0596 7.91447 17.0788 7.85047C17.098 7.78486 17.1556 7.74006 17.2244 7.73686L22.5676 7.46004C23.5451 7.43284 24.4569 7.93207 24.9481 8.75933L26.4854 11.3499L27.2885 10.9227C27.3509 10.8891 27.4293 10.9019 27.4789 10.9531C27.5285 11.0043 27.5381 11.0827 27.5013 11.1451L25.3272 14.8733C25.3 14.9213 25.2488 14.9517 25.1944 14.9533L20.9486 15.0814C20.9486 15.0814 20.9454 15.0814 20.9438 15.0814L20.9406 15.0782ZM17.6531 8.03288C17.9731 8.3193 18.245 8.65372 18.4674 9.02655L21.6973 14.4701C21.7197 14.5069 21.7245 14.5501 21.7149 14.5917C21.7037 14.6333 21.6781 14.6685 21.6413 14.6893L21.5582 14.7373L25.092 14.6317L26.9382 11.4667L26.4982 11.7019C26.423 11.7419 26.3286 11.7163 26.2855 11.6427L24.6697 8.92094C24.2378 8.19289 23.4363 7.75606 22.5724 7.77846H22.518L17.6531 8.03288Z" fill="black"/>
<path d="M17.2587 7.91406C17.689 8.23568 18.0522 8.63891 18.3305 9.10774L18.7705 9.84859L15.7965 14.7993C15.7549 14.8681 15.6909 14.8793 15.6573 14.8809C15.6221 14.8809 15.555 14.8729 15.5134 14.8025L14.0752 12.38L13.9312 12.1383L13.6464 12.1639L10.6133 12.4312L12.8385 8.85013C13.1425 8.36049 13.6688 8.05487 14.2463 8.03247L17.2603 7.91406H17.2587Z" fill="white"/>
<path d="M15.6504 15.0408C15.5352 15.0408 15.4312 14.9832 15.372 14.884L13.8427 12.3062L10.6255 12.5894C10.5663 12.5942 10.5072 12.5654 10.4752 12.5142C10.4432 12.463 10.4432 12.3974 10.4752 12.3462L12.7004 8.76517C13.0332 8.23074 13.6075 7.89632 14.2378 7.87231L17.2518 7.75391C17.2886 7.75391 17.3238 7.76351 17.3542 7.78591C17.8053 8.12353 18.1796 8.53956 18.4676 9.02599L18.9075 9.76684C18.9379 9.81804 18.9379 9.88045 18.9075 9.93165L15.9336 14.8824C15.8744 14.98 15.7752 15.0392 15.6616 15.0424C15.6584 15.0424 15.6552 15.0424 15.652 15.0424L15.6504 15.0408ZM13.9307 11.9782C13.9866 11.9782 14.0394 12.007 14.0682 12.0566L15.6488 14.7208L18.5828 9.84845L18.1924 9.1908C17.9349 8.75717 17.6037 8.38275 17.207 8.07713L14.2506 8.19234C13.7259 8.21314 13.2492 8.48996 12.9724 8.93479L10.9151 12.2438L13.9147 11.9798C13.9147 11.9798 13.9243 11.9798 13.9291 11.9798L13.9307 11.9782Z" fill="black"/>
<path d="M8.31 14.5475L12.639 14.4883L14.813 18.0517L14.5875 17.9269L14.1907 17.7093L13.962 18.1045L11.4151 22.5144L10.9784 23.2697C10.7016 23.7481 10.5241 24.2665 10.4505 24.801C10.4505 24.8122 10.4473 24.8234 10.4457 24.8346L7.6445 20.4695C7.14218 19.6854 7.12298 18.6902 7.59491 17.8725L8.9819 15.4707L9.19947 15.0931L8.82992 14.8675L8.3068 14.5491L8.31 14.5475Z" fill="white"/>
<path d="M10.4483 24.9925C10.3939 24.9925 10.3443 24.9653 10.3139 24.9189L7.51275 20.5538C6.97683 19.7185 6.95603 18.6609 7.45836 17.7904L8.98613 15.1454L8.22624 14.683C8.16545 14.6462 8.13667 14.5726 8.15586 14.5038C8.17506 14.435 8.23744 14.387 8.30783 14.3854L12.6368 14.3262C12.6912 14.3262 12.7456 14.355 12.776 14.403L14.9501 17.9664C14.9884 18.0288 14.9788 18.1072 14.9293 18.16C14.8797 18.2128 14.7997 18.224 14.7357 18.1888L14.251 17.9216L11.1186 23.346C10.8531 23.8068 10.6819 24.3012 10.6115 24.8181L10.6067 24.8501C10.5987 24.9173 10.5491 24.9717 10.4835 24.9861C10.4723 24.9893 10.4595 24.9893 10.4483 24.9893V24.9925ZM8.86775 14.7006L9.28689 14.955C9.36048 14.9998 9.38608 15.0958 9.34288 15.171L7.73832 17.9504C7.29678 18.7169 7.31439 19.6481 7.78472 20.381L10.3651 24.402C10.4611 23.9796 10.6227 23.5716 10.8435 23.1876L14.0542 17.6272C14.0974 17.552 14.1934 17.5248 14.2702 17.5664L14.3645 17.6192L12.552 14.6478L8.86935 14.699L8.86775 14.7006Z" fill="black"/>
</svg>
