<svg width="16" height="16" viewBox="0 0 16 16" fill="none" xmlns="http://www.w3.org/2000/svg">
<path d="M15.5294 8.08618C15.5294 7.51365 15.5294 7.01268 15.3863 6.51172H7.94336V9.58908H12.1658C11.9511 10.591 11.4501 11.3782 10.5913 11.9508V13.9546H13.1677C14.6706 12.5949 15.5294 10.591 15.5294 8.15775V8.08618Z" fill="#4285F4"/>
<path d="M7.94251 15.8147C10.0895 15.8147 11.8787 15.0991 13.1669 13.8824L10.5905 11.8786C9.8748 12.3795 9.01601 12.6658 7.94251 12.6658C5.86708 12.6658 4.14948 11.306 3.50538 9.44531H0.857422V11.4492C2.14562 14.0256 4.79358 15.8147 7.87094 15.8147H7.94251Z" fill="#34A853"/>
<path d="M3.50676 9.4452C3.36363 8.94424 3.29206 8.44327 3.29206 7.94231C3.29206 7.44134 3.36363 6.94037 3.50676 6.43941V4.43555H0.858798C0.286266 5.50904 0 6.72568 0 7.94231C0 9.15894 0.286266 10.3756 0.858798 11.4491L2.86266 9.8746L3.43519 9.4452H3.50676Z" fill="#FBBC05"/>
<path d="M7.94125 3.22049C9.08632 3.22049 10.1598 3.64989 10.947 4.36556L13.1656 2.07543C11.8058 0.787232 10.0167 0 7.86969 0C4.86389 0.0715665 2.21593 1.86073 0.927734 4.43712L3.5757 6.44099C4.21979 4.58026 5.93739 3.22049 8.01282 3.22049H7.94125Z" fill="#EA4335"/>
</svg>
