<svg width="65" height="12" viewBox="0 0 65 12" fill="none" xmlns="http://www.w3.org/2000/svg">
<path d="M8.968 11.7829C6.90498 11.7829 5.64302 10.8282 5.18213 8.9188L4.77063 7.22339H3.99699V11.5195H0.392185V0.194843H5.37966C6.32338 0.194843 7.15188 0.337499 7.86516 0.62281C8.58942 0.897149 9.14907 1.28671 9.54411 1.79149C9.93916 2.29627 10.1367 2.87787 10.1367 3.53628C10.1367 4.27151 9.95562 4.89152 9.59349 5.3963C9.24234 5.89011 8.69366 6.29613 7.94746 6.61436C8.02428 7.03136 8.11207 7.40994 8.21083 7.75012C8.34251 8.16712 8.52358 8.45791 8.75402 8.62252C8.98446 8.78712 9.31916 8.86942 9.7581 8.86942C9.91173 8.86942 10.1531 8.84748 10.4824 8.80358V11.4866C9.9666 11.6841 9.46181 11.7829 8.968 11.7829ZM4.62248 4.91895C5.43453 4.91895 6.00515 4.83116 6.33435 4.65558C6.67453 4.46903 6.84462 4.15629 6.84462 3.71735C6.84462 3.34425 6.70745 3.0754 6.43312 2.91079C6.15878 2.73522 5.72532 2.64743 5.13275 2.64743H3.99699V4.91895H4.62248ZM12.2147 0.194843H20.165V2.69681H16.2145V4.75435H19.8193V6.82834H16.2145V9.01757H20.165V11.5195H12.2147V0.194843ZM22.0863 3.38814H25.5595V5.06709C25.8119 4.41965 26.152 3.9423 26.58 3.63505C27.019 3.31681 27.5292 3.1577 28.1108 3.1577L28.5882 5.84073C27.5457 5.84073 26.7775 5.95595 26.2837 6.18639C25.8009 6.40586 25.5595 6.75702 25.5595 7.23985V11.5195H22.0863V3.38814ZM33.3993 11.6512C32.6861 11.6512 32.0167 11.4647 31.3912 11.0916C30.7767 10.7075 30.2829 10.1917 29.9098 9.54429C29.5367 8.88588 29.3501 8.15614 29.3501 7.35507C29.3501 6.56498 29.5367 5.8517 29.9098 5.21524C30.2829 4.5678 30.7821 4.06301 31.4076 3.70089C32.0331 3.33876 32.697 3.1577 33.3993 3.1577C33.97 3.1577 34.4967 3.31681 34.9795 3.63505C35.4733 3.95328 35.8464 4.43063 36.0988 5.06709V3.1577H39.5555V11.5195H36.0988V9.98872C35.5501 11.0971 34.6503 11.6512 33.3993 11.6512ZM34.4693 9.05049C34.9082 9.05049 35.2813 8.89686 35.5886 8.5896C35.9068 8.27136 36.0769 7.89826 36.0988 7.4703V7.33861C36.0769 6.89967 35.9013 6.52657 35.5721 6.21931C35.2539 5.91205 34.8862 5.75843 34.4693 5.75843C34.0084 5.75843 33.6133 5.92303 33.2841 6.25223C32.9659 6.57047 32.8068 6.95454 32.8068 7.40446C32.8068 7.86534 32.9714 8.2549 33.3006 8.57314C33.6298 8.89137 34.0193 9.05049 34.4693 9.05049ZM45.6176 11.6512C44.7398 11.6512 43.9606 11.4756 43.2803 11.1245C42.6109 10.7624 42.0842 10.2576 41.7001 9.61014C41.327 8.9627 41.1404 8.22747 41.1404 7.40446C41.1404 6.61436 41.338 5.89559 41.733 5.24816C42.1281 4.60072 42.6658 4.09045 43.3461 3.71735C44.0265 3.34425 44.7836 3.1577 45.6176 3.1577C46.6821 3.1577 47.5215 3.37717 48.1361 3.81611L47.8233 6.00533C47.1978 5.81878 46.6821 5.7255 46.276 5.7255C45.7493 5.7255 45.3323 5.87913 45.0251 6.18639C44.7178 6.48268 44.5642 6.8887 44.5642 7.40446C44.5642 7.92021 44.7178 8.33172 45.0251 8.63898C45.3323 8.94624 45.7383 9.09987 46.2431 9.09987C46.6821 9.09987 47.1978 9.00659 47.7904 8.82004L48.1031 11.1245C47.73 11.311 47.3515 11.4427 46.9674 11.5195C46.5833 11.6073 46.1334 11.6512 45.6176 11.6512ZM52.5422 11.6512C51.6094 11.6512 50.8851 11.3604 50.3694 10.7788C49.8646 10.1862 49.6122 9.37969 49.6122 8.35915V0.672191L53.0853 0.161922V8.11225C53.0853 8.41951 53.1567 8.64447 53.2993 8.78712C53.453 8.9188 53.7163 8.98464 54.0894 8.98464C54.3638 8.98464 54.6326 8.9188 54.896 8.78712L55.0112 11.0916C54.276 11.4647 53.453 11.6512 52.5422 11.6512ZM60.4584 11.6512C59.5476 11.6512 58.7356 11.4702 58.0223 11.108C57.32 10.7349 56.7713 10.2301 56.3762 9.59368C55.9812 8.94624 55.7837 8.2165 55.7837 7.40446C55.7837 6.57047 55.9867 5.82975 56.3927 5.18231C56.7987 4.53488 57.3474 4.03558 58.0387 3.68443C58.7301 3.33327 59.4982 3.1577 60.3432 3.1577C61.1552 3.1577 61.8466 3.33876 62.4172 3.70089C62.9988 4.05204 63.4322 4.53488 63.7175 5.14939C64.0029 5.75294 64.1455 6.4333 64.1455 7.19047C64.1455 7.388 64.1345 7.53065 64.1126 7.61844L59.1745 8.26039C59.3062 8.64447 59.5202 8.92429 59.8164 9.09987C60.1127 9.26447 60.5023 9.34677 60.9851 9.34677C61.7313 9.34677 62.5379 9.15473 63.4048 8.77066L63.8163 10.9763C62.7958 11.4263 61.6765 11.6512 60.4584 11.6512ZM61.5942 6.18639C61.4186 5.49506 61.0016 5.14939 60.3432 5.14939C59.9481 5.14939 59.6354 5.29754 59.4049 5.59382C59.1745 5.89011 59.0538 6.27418 59.0428 6.74604L61.5942 6.18639Z" fill="#9747FF"/>
</svg>
